<svg xmlns="http://www.w3.org/2000/svg" xmlns:xlink="http://www.w3.org/1999/xlink" width="500" zoomAndPan="magnify" viewBox="0 0 375 374.999991" height="500" preserveAspectRatio="xMidYMid meet" version="1.0"><defs><clipPath id="3f52504586"><path d="M 11.449219 11.449219 L 363.199219 11.449219 L 363.199219 363.199219 L 11.449219 363.199219 Z M 11.449219 11.449219 " clip-rule="nonzero"/></clipPath><clipPath id="45c92d3656"><path d="M 187.324219 11.449219 C 90.191406 11.449219 11.449219 90.191406 11.449219 187.324219 C 11.449219 284.457031 90.191406 363.199219 187.324219 363.199219 C 284.457031 363.199219 363.199219 284.457031 363.199219 187.324219 C 363.199219 90.191406 284.457031 11.449219 187.324219 11.449219 " clip-rule="nonzero"/></clipPath></defs><g clip-path="url(#3f52504586)"><g clip-path="url(#45c92d3656)"><path stroke-linecap="butt" transform="matrix(0.749276, 0, 0, 0.749276, 11.450552, 11.450547)" fill="none" stroke-linejoin="miter" d="M 234.724791 -0.00177315 C 105.089243 -0.00177315 -0.00177915 105.089249 -0.00177915 234.724797 C -0.00177915 364.360344 105.089243 469.451366 234.724791 469.451366 C 364.360338 469.451366 469.45136 364.360344 469.45136 234.724797 C 469.45136 105.089249 364.360338 -0.00177315 234.724791 -0.00177315 " stroke="#000000" stroke-width="8" stroke-opacity="1" stroke-miterlimit="4"/></g></g><path stroke-linecap="butt" transform="matrix(0.74981, 0, 0, 0.75, 103.852901, 256.374739)" fill="none" stroke-linejoin="miter" d="M -0.00178496 2.000348 L 308.086783 2.000348 " stroke="#000000" stroke-width="4" stroke-opacity="1" stroke-miterlimit="4"/><path stroke-linecap="butt" transform="matrix(0.278407, -0.695927, 0.696345, 0.278575, 85.041429, 301.736493)" fill="none" stroke-linejoin="miter" d="M 0.000574801 1.999017 L 312.185283 1.99831 " stroke="#000000" stroke-width="4" stroke-opacity="1" stroke-miterlimit="4"/><path stroke-linecap="butt" transform="matrix(0.000000000000000046, 0.749399, -0.75, 0.000000000000000046, 174.900051, 25.18556)" fill="none" stroke-linejoin="miter" d="M 0.00258817 2.002151 L 312.252629 2.002151 " stroke="#000000" stroke-width="4" stroke-opacity="1" stroke-miterlimit="4"/></svg>