<svg xmlns="http://www.w3.org/2000/svg" xmlns:xlink="http://www.w3.org/1999/xlink" width="500" zoomAndPan="magnify" viewBox="0 0 375 374.999991" height="500" preserveAspectRatio="xMidYMid meet" version="1.0"><defs><clipPath id="9ed8f23bbd"><path d="M 5.359375 5.359375 L 369.859375 5.359375 L 369.859375 369.859375 L 5.359375 369.859375 Z M 5.359375 5.359375 " clip-rule="nonzero"/></clipPath></defs><path stroke-linecap="butt" transform="matrix(0.74981, 0, 0, 0.75, 103.852901, 255.624739)" fill="none" stroke-linejoin="miter" d="M -0.00178496 3.000348 L 308.086783 3.000348 " stroke="#ffffff" stroke-width="6" stroke-opacity="1" stroke-miterlimit="4"/><path stroke-linecap="butt" transform="matrix(0.278407, -0.695927, 0.696345, 0.278575, 84.345088, 301.457911)" fill="none" stroke-linejoin="miter" d="M 0.000563391 2.999016 L 312.185271 2.998309 " stroke="#ffffff" stroke-width="6" stroke-opacity="1" stroke-miterlimit="4"/><path stroke-linecap="butt" transform="matrix(0.000000000000000046, 0.749399, -0.75, 0.000000000000000046, 175.650051, 25.18556)" fill="none" stroke-linejoin="miter" d="M 0.00258817 3.002151 L 312.252629 3.002151 " stroke="#ffffff" stroke-width="6" stroke-opacity="1" stroke-miterlimit="4"/><g clip-path="url(#9ed8f23bbd)"><path fill="#ffffff" d="M 187.609375 369.859375 C 87.144531 369.859375 5.359375 288.070312 5.359375 187.609375 C 5.359375 87.144531 87.144531 5.359375 187.609375 5.359375 C 288.070312 5.359375 369.859375 87.144531 369.859375 187.609375 C 369.859375 288.070312 288.070312 369.859375 187.609375 369.859375 Z M 187.609375 8.050781 C 88.582031 8.050781 8.050781 88.582031 8.050781 187.609375 C 8.050781 286.632812 88.582031 367.164062 187.609375 367.164062 C 286.632812 367.164062 367.164062 286.632812 367.164062 187.609375 C 367.164062 88.582031 286.632812 8.050781 187.609375 8.050781 Z M 187.609375 8.050781 " fill-opacity="1" fill-rule="nonzero"/></g></svg>